<?xml version="1.0" encoding="utf-8"?>
<!-- Svg Vector Icons : http://www.onlinewebfonts.com/icon -->
<!DOCTYPE svg PUBLIC "-//W3C//DTD SVG 1.1//EN" "http://www.w3.org/Graphics/SVG/1.1/DTD/svg11.dtd">
<svg version="1.1" xmlns="http://www.w3.org/2000/svg" xmlns:xlink="http://www.w3.org/1999/xlink" x="0px" y="0px" viewBox="0 0 1000 1000" enable-background="new 0 0 1000 1000" xml:space="preserve">
<metadata> Svg Vector Icons : http://www.onlinewebfonts.com/icon </metadata>
<g><g transform="translate(0.000000,512.000000) scale(0.100000,-0.100000)"><path d="M5345.4,5003.6c-768.8-86.3-1487.8-563.7-1852-1228.9c-69-126.5-70.9-128.4-120.8-103.5c-184.1,95.9-469.7,140-684.4,107.4c-569.4-86.3-968.2-494.6-1044.9-1069.8l-23-170.6l-180.2-49.8c-314.4-88.2-592.4-251.2-814.8-477.4C34.8,1410.7-70.7,486.6,374.1-226.6C498.7-424,717.3-648.3,920.5-784.5l170.6-115L1281-771c105.4,69,191.7,132.3,191.7,140c0,5.8-42.2,26.8-93.9,46c-256.9,92-569.4,375.8-707.5,640.4C540.9,304.5,504.5,452.1,504.5,730.1c0,197.5,7.7,264.6,46,383.4c78.6,253.1,184.1,433.3,366.2,615.4c251.2,255,456.3,354.7,880,427.5l239.6,42.2l1.9,276.1c0,241.6,7.7,293.3,44.1,387.3c84.4,210.9,270.3,394.9,477.4,477.4c86.3,34.5,151.5,44.1,295.2,44.1l186,1.9l264.6-134.2c147.6-72.8,272.2-136.1,279.9-140c7.7-3.8,74.8,115,149.5,264.6c164.9,322.1,304.8,515.7,511.9,709.4c187.9,174.5,406.4,308.7,642.3,396.9c281.8,105.4,410.3,128.4,743.9,126.5c256.9,0,322.1-5.7,483.1-49.8c680.6-180.2,1221.3-686.4,1441.7-1344c72.9-220.5,107.4-462.1,107.4-770.7v-270.3l331.7-11.5c333.6-9.6,417.9-24.9,626.9-109.3c247.3-97.8,536.8-352.8,680.6-596.3c38.3-67.1,97.8-199.4,130.4-295.3c53.7-157.2,59.4-193.6,59.4-421.8c1.9-268.4-32.6-423.7-136.1-632.7c-157.2-312.5-467.8-602-759.2-701.7c-38.3-13.4-69-32.6-65.2-42.2c1.9-9.6,86.3-70.9,186-138l182.1-120.8l86.3,47.9c233.9,134.2,490.8,385.4,638.4,623.1c446.7,717,337.5,1648.8-264.6,2248.9c-302.9,304.8-661.4,475.5-1112,529.2c-94,11.5-174.5,23-174.5,23c-1.9,1.9-13.4,99.7-26.8,214.7c-63.3,611.6-283.8,1079.4-709.4,1505c-291.4,291.4-582.8,473.6-947.1,592.4C6016.5,5011.2,5707.8,5043.8,5345.4,5003.6z"/><path d="M4477,3034.6L3965,2691.4l508.1-337.4c279.9-187.9,515.7-339.3,527.2-339.3s247.3,151.5,527.2,339.3l508.1,337.4l-511.9,343.2c-283.7,187.9-517.6,341.3-523.4,341.3C4994.6,3375.9,4760.7,3222.5,4477,3034.6z"/><path d="M3773.3,1631.2V941l485-322.1C4523,440.6,4753,289.2,4766.4,281.5c17.3-11.5,23,128.4,23,674.9v688.3l-508.1,337.4l-508.1,339.3V1631.2z"/><path d="M5715.5,1982.1l-504.2-337.4V956.4c0-546.4,5.7-686.4,24.9-674.9c11.5,7.7,241.6,159.1,508.1,337.4L6227.4,941v690.2c0,379.6-1.9,690.2-3.8,688.3C6219.7,2319.5,5991.5,2166.1,5715.5,1982.1z"/><path d="M2670.9,910.3c-571.3-327.8-676.8-394.9-703.6-450.5c-28.8-55.6-34.5-118.9-34.5-404.5V-286h201.3h201.3v274.2l1.9,272.2l498.5,285.7c276.1,159.1,504.2,297.2,508.1,308.7c5.8,11.5,5.8,117,3.8,232l-5.7,210.9L2670.9,910.3z"/><path d="M6653,1071.4l5.8-233.9L7161,548l502.3-287.6l1.9-272.2V-286h201.3h201.3V55.3c0,442.9,7.7,427.5-306.8,607.8c-132.3,74.8-437.1,249.2-676.8,389.2l-437.1,251.2L6653,1071.4z"/><path d="M1618.4-1051l-513.8-343.2l515.7-345.1l517.6-345.1l510,337.4c281.8,186,510,343.2,510,348.9c1.9,7.7-734.3,502.3-973.9,655.7l-51.8,32.6L1618.4-1051z"/><path d="M7352.8-1047.1c-281.8-187.9-510-345.1-510-350.8c0-5.7,228.2-163,510-348.9l510-337.4l517.6,345.1l515.7,345.1l-465.9,310.6c-256.9,170.6-490.8,325.9-517.6,345.1l-49.9,32.6L7352.8-1047.1z"/><path d="M916.7-2467.8v-688.3l508.1-337.4l508.1-339.3v690.2v690.2l-483.1,322.1c-266.5,178.3-496.6,329.8-508.1,337.4C922.4-1781.4,916.7-1921.4,916.7-2467.8z"/><path d="M2849.2-2113.1l-492.7-329.8l-1.9-688.3v-686.4l53.7,34.5c28.8,17.3,253.1,166.8,498.5,329.8l444.8,297.2v688.3c0,377.7-1.9,686.4-3.8,684.4C3343.9-1783.3,3119.6-1932.9,2849.2-2113.1z"/><path d="M6649.1-2467.8v-688.3l446.7-297.2c243.5-163,467.8-312.5,498.5-329.8l51.8-34.5v686.4l-1.9,688.3l-496.6,331.7l-498.5,329.8V-2467.8z"/><path d="M8570.2-2116.9l-502.3-335.5v-690.2v-690.2l508.1,339.3l508.1,337.4v688.3c0,377.7-1.9,686.4-5.8,686.4C9076.3-1781.4,8848.2-1932.9,8570.2-2116.9z"/><path d="M3374.6-3644.9c-164.9-109.3-176.4-120.8-143.8-143.8c19.2-15.3,410.3-243.5,868.5-508.1c653.8-379.6,849.3-483.1,901.1-483.1c53.7,0,245.4,103.5,920.3,494.6c469.7,270.3,860.8,500.4,868.5,508.1c7.7,7.7-67.1,69-166.8,134.2l-180.2,118.9l-697.9-402.6c-381.5-220.5-709.4-406.4-724.7-414.1c-17.3-5.7-312.5,153.4-728.5,394.9c-385.4,222.4-707.4,408.4-719,412.2C3562.4-3529.9,3472.3-3579.7,3374.6-3644.9z"/></g></g>
</svg>